<?xml version="1.0" encoding="utf-8"?>
<!-- Generator: Adobe Illustrator 16.0.3, SVG Export Plug-In . SVG Version: 6.00 Build 0)  -->
<!DOCTYPE svg PUBLIC "-//W3C//DTD SVG 1.1//EN" "http://www.w3.org/Graphics/SVG/1.1/DTD/svg11.dtd">
<svg version="1.1" xmlns="http://www.w3.org/2000/svg" xmlns:xlink="http://www.w3.org/1999/xlink" x="0px" y="0px" width="1000px"
	 height="1000px" viewBox="0 0 1000 1000" enable-background="new 0 0 1000 1000" xml:space="preserve">
<g id="Capa_2">
</g>
<g id="Capa_1">
	<circle fill="#FF9800" cx="500" cy="500" r="487"/>
	<path fill="#FFFFFF" d="M499.858,160.589L161,408.688V500h97.935l0.608,294H738.63l0.608-196h238.022
		c0,0,9.739-31.973,9.739-97.413S977.625,405,977.625,405H832.184L499.858,160.589z"/>
	<path display="none" fill="#FF9800" d="M501.96,321.382c-37.03,4.516-64.128,19.925-73.27,41.67
		c-8.436,20.067-1.786,38.238,3.739,49.287c3.56,7.121,20.697,21.307,20.697,21.307c-1.156,9.707-15.804,20.508-19.48,32.873
		c-6.697,22.523,11.566,44.438,36.525,45.047c34.208,0.834,170.131-33.029,155.522,16.279
		c-14.35,48.426-49.483,105.926-70.905,105.264c-26.785-0.827-47.484,0.238-65.746-0.402c-34.698-1.217-36.524-14.001-54.787-42.003
		c-9.932-15.228-48.091-107.749-48.091-107.749s-18.263-38.96-43.83-46.265c-17.609-5.03-47.371-5.525-68.789,3.652
		c-21.417,9.179-26.788,40.169,4.238,37.552c31.025-2.618,45.071-6.505,57.246,0.8c12.175,7.305,14.39,13.181,27.394,39.569
		c13.003,26.39,49.009,144.882,107.14,144.882c58.134,0,54.781,0.544,74.262,0.544s69.629-0.224,105.953-96.594
		c45.022-119.446-94.989-96.172-139.918-87.184c-71.275,14.26-31.166-31.045-31.166-31.045s43.383,6.305,76.094-7.914
		c17.761-7.721,36.005-23.62,39.568-43.831c3.916-22.217-4.87-39.568-4.87-39.568s-1.101-12.099,18.254-11.385
		c11.575,0.427,14.585-5.854,6.705-18.444c-8.395-13.411-15.665-12.396-24.351-1.826c-9.389,11.425-9.446,25.148-16.436,15.827
		C562.701,327.116,532.848,317.617,501.96,321.382z"/>
	<path fill="#FFFFFF" d="M554.788,383.148c0.001,19.91-20.116,36.051-44.929,36.051c-24.813,0-44.93-16.142-44.93-36.052
		c0.001-19.911,20.116-36.052,44.93-36.052C534.67,347.095,554.788,363.236,554.788,383.148z"/>
	<circle display="none" fill="#FF9800" cx="569.397" cy="704.54" r="32.873"/>
	<circle display="none" fill="#FF9800" cx="459.823" cy="704.54" r="32.873"/>
	<g display="none">
		<path display="inline" fill-rule="evenodd" clip-rule="evenodd" fill="#F79B14" d="M566.505,498.339
			c22.322,0,40.295-0.333,58.255,0.067c43.657,0.974,68.471,45.992,48.738,85.505c-11.555,23.139-19.133,48.1-32.668,70.563
			c-19.144,31.778-45.671,47.327-83.13,44.774c-31.94-2.174-64.276,3.339-95.904-6.002c-25.749-7.605-41.837-25.222-52.742-48.41
			c-16.053-34.139-31.96-68.358-47.191-102.869c-8.058-18.263-19.096-30.084-40.867-25.965c-1.194,0.229-2.473,0.027-3.712-0.002
			c-25.081-0.532-40.288-11.424-40.469-28.984c-0.154-15.062,17.035-28.967,39.163-29.946c50.371-2.224,72.704,7.221,97.507,65.958
			c12.239,28.988,27.105,56.859,40.366,85.427c11.619,25.026,32.616,34.261,58.327,35.109c16.68,0.547,33.41-0.246,50.117-0.565
			c5.875-0.115,11.184-2.725,14.833-6.88c17.73-20.202,31.47-43.252,39.173-68.733c5.141-17.01-9.527-14.06-19.93-14.027
			c-43.154,0.148-86.355,3.041-129.403-2.977c-17.668-2.465-30.882-11.534-36.441-27.74c-5.847-17.031-5.004-34.145,11.551-46.919
			c10.959-8.456,13.938-13.857,2.299-29.079c-33.207-43.424-20.232-103.593,35.047-127.524
			c36.233-15.686,72.697-18.917,110.175-5.989c13.04,4.495,24.051-0.264,35.337-5.876c22.441-11.16,48.479,4.059,48.434,28.742
			c-0.021,11.667-10.687,16.164-19.225,20.559c-6.948,3.573-8.584,6.497-5.22,13.85c16.651,36.379-0.649,79.534-37.512,97.612
			c-33.419,16.392-67.793,22.361-104.467,14.679c-5.912-1.239-15.657-6.295-17.291,3.423c-1.823,10.855,10.14,9.536,16.277,10.224
			C527.458,498.766,549.159,499.513,566.505,498.339z M542.853,362.934c-26.491,0.014-39.513,10.829-39.766,33.02
			c-0.249,21.854,12.103,32.485,37.601,32.355c26.046-0.127,41.295-13.021,41.284-34.915
			C581.965,375.441,565.889,362.922,542.853,362.934z"/>
		<path display="inline" fill-rule="evenodd" clip-rule="evenodd" fill="#F79B14" d="M582.438,707.884
			c16.951-0.101,34.997,14.809,35.345,29.2c0.554,23.188-14.698,37.041-40.994,37.24c-19.93,0.151-32.684-12.535-32.458-32.284
			C544.56,721.906,560.056,708.013,582.438,707.884z"/>
		<path display="inline" fill-rule="evenodd" clip-rule="evenodd" fill="#F79D17" d="M463.333,773.339
			c-21.34-0.142-34.397-12.481-34.361-32.493c0.033-20.314,13.549-34.702,32.745-34.854c20.714-0.164,37.669,14.903,37.25,33.102
			C498.5,759.398,483.855,773.47,463.333,773.339z"/>
	</g>
	<g>
		<path fill-rule="evenodd" clip-rule="evenodd" fill="#FF9800" d="M641.869,361.026c31.017,65.845-16.908,113.051-82.115,119.52
			c-17.037,1.696-34.363,2.203-51.356-2.057c-9.722-2.448-20.095-2.549-21.861,9.591c-1.826,12.792,9.749,14.5,18.746,14.937
			c25.148,1.231,50.356,1.42,75.521,1.911c7.982,0.159,15.98,0.029,23.977,0.029c64.28,0.015,84.723,31.495,58.472,89.938
			c-7.272,16.228-14.197,32.625-21.645,48.793c-15.645,33.957-41.187,52.399-79.752,51.098c-20.269-0.695-40.578,0.013-60.862-0.116
			c-43.723-0.246-71.335-19.299-88.518-59.324c-13.792-32.119-29.119-63.587-42.983-95.69
			c-8.649-20.051-23.021-29.438-44.621-28.337c-4.302,0.216-8.619,0.103-12.908,0c-17.906-0.42-27.728-8.431-26.859-22.962
			c1.015-17.008,11.851-22.941,27.598-22.602c8.592,0.183,17.255,0.565,25.803-0.114c33.872-2.695,54.241,15.486,67.626,43.795
			c16.255,34.394,32.365,68.872,47.49,103.771c10.315,23.803,27.496,35.017,53.052,34.669c18.456-0.246,36.913-0.464,55.342,0.028
			c15.271,0.407,26.643-6.562,33.468-18.979c9.747-17.688,18.57-36.03,25.96-54.82c6.592-16.733,1.738-22.658-16.226-22.759
			c-34.423-0.188-68.859-0.043-103.296-0.015c-9.851,0.015-19.559-0.535-29.235-2.955c-18.008-4.491-32.074-13.952-36.275-32.597
			c-4.202-18.76,4.52-34.001,19.384-44.65c8.519-6.105,9.677-8.575,1.854-16.913c-38.725-41.217-24.701-104.932,27.569-128.698
			c34.262-15.566,69.597-12.56,104.875-5.303c13.356,2.753,25.367,1.674,37.493-4.15c19.645-9.431,31.696-5.679,38.681,11.525
			c6.808,16.762,2.753,23.346-19.327,31.431C645.229,359.643,643.563,360.353,641.869,361.026z M544.904,361.41
			c-26.409-0.188-42.549,13.741-42.795,36.943c-0.246,22.52,14.965,36.045,41.014,36.479c25.613,0.42,43.332-14.763,43.174-36.979
			C586.15,375.456,570.388,361.583,544.904,361.41z"/>
		<path fill-rule="evenodd" clip-rule="evenodd" fill="#FF9800" d="M612.807,740.391c-0.317,17.082-13.387,29.104-31.176,28.672
			c-17.168-0.437-28.511-11.939-28.54-28.963c-0.045-17.645,12.4-30.232,29.757-30.103
			C599.798,710.126,613.097,723.615,612.807,740.391z"/>
		<path fill-rule="evenodd" clip-rule="evenodd" fill="#FF9800" d="M495.33,739.13c0.289,17.573-11.866,29.845-29.656,29.933
			c-17.935,0.087-30.133-11.91-30.018-29.525c0.101-16.242,12.386-28.846,28.8-29.54C481.321,709.286,495.054,722.238,495.33,739.13
			z"/>
	</g>
</g>
</svg>
