<?xml version="1.0" standalone="no"?>
<!DOCTYPE svg PUBLIC "-//W3C//DTD SVG 20010904//EN"
 "http://www.w3.org/TR/2001/REC-SVG-20010904/DTD/svg10.dtd">
<svg version="1.0" xmlns="http://www.w3.org/2000/svg"
 width="700.000000pt" height="700.000000pt" viewBox="0 0 700.000000 700.000000"
 preserveAspectRatio="xMidYMid meet">
<metadata>
Created by potrace 1.14, written by Peter Selinger 2001-2017
</metadata>
<g transform="translate(0.000000,700.000000) scale(0.100000,-0.100000)"
fill="#000000" stroke="none">
<path d="M3290 6904 c-804 -58 -1520 -366 -2107 -905 -591 -545 -966 -1282
-1070 -2104 -24 -194 -24 -596 0 -790 98 -778 435 -1473 978 -2014 549 -548
1243 -884 2019 -978 199 -24 581 -24 780 0 1138 137 2113 812 2637 1823 142
274 229 513 307 846 l6 28 -835 0 -835 0 0 -685 0 -685 -1673 0 -1674 0 -6
572 c-4 314 -7 778 -7 1030 l0 458 -340 0 -340 0 1 323 0 322 1176 860 c647
473 1182 861 1188 863 6 2 535 -382 1175 -853 l1163 -855 504 0 c474 0 503 1
503 18 0 34 -71 298 -112 417 -225 655 -634 1218 -1183 1630 -477 358 -1020
579 -1611 655 -154 20 -512 33 -644 24z"/>
<path d="M4440 4806 c-169 -66 -193 -68 -377 -35 -157 29 -407 32 -503 6 -220
-60 -362 -161 -444 -316 -109 -207 -81 -442 74 -624 28 -32 50 -66 50 -75 0
-9 -32 -46 -71 -81 -87 -78 -119 -139 -119 -223 0 -112 57 -207 157 -258 100
-51 116 -53 628 -59 363 -5 485 -9 502 -19 52 -29 40 -91 -57 -301 -107 -232
-149 -294 -227 -332 -41 -20 -59 -21 -320 -20 -308 0 -350 7 -425 64 -63 48
-98 100 -157 233 -112 248 -226 494 -292 629 -98 203 -184 290 -322 330 -47
13 -93 16 -245 13 -211 -3 -241 -12 -274 -78 -26 -51 -24 -140 4 -175 35 -45
80 -58 233 -65 115 -5 147 -10 181 -28 73 -37 123 -106 191 -258 158 -358 290
-644 322 -699 52 -91 152 -185 241 -228 123 -60 178 -67 544 -67 355 0 390 4
498 62 137 73 199 157 329 449 117 264 149 355 156 449 14 181 -71 291 -263
341 -71 18 -123 21 -519 29 -479 9 -505 12 -525 65 -23 59 22 125 84 125 17
-1 60 -7 96 -15 84 -19 259 -19 380 0 305 45 533 223 581 453 16 78 6 190 -25
287 -14 44 -26 83 -26 86 0 4 21 14 47 24 65 25 112 54 123 75 28 53 -3 162
-61 215 -33 30 -46 35 -87 35 -26 -1 -63 -7 -82 -14z m-485 -365 c101 -45 144
-112 145 -224 0 -156 -95 -246 -271 -255 -149 -7 -255 43 -294 140 -22 56 -22
160 0 216 23 56 92 115 157 135 75 23 198 17 263 -12z"/>
<path d="M3175 2011 c-205 -95 -143 -392 82 -391 107 1 179 54 203 152 42 165
-131 310 -285 239z"/>
<path d="M3982 2004 c-146 -73 -147 -290 -1 -364 50 -26 140 -26 194 -1 127
57 153 225 51 327 -68 68 -156 82 -244 38z"/>
</g>
</svg>
